<svg width="50" height="42" viewBox="0 0 50 42" fill="none" xmlns="http://www.w3.org/2000/svg">
<g clip-path="url(#clip0_159_614)">
<path d="M36.4856 27.9058C36.0711 27.9058 35.6659 27.7841 35.3212 27.556C34.9766 27.3279 34.7079 27.0038 34.5493 26.6245C34.3907 26.2453 34.3492 25.828 34.43 25.4253C34.5109 25.0227 34.7105 24.6529 35.0036 24.3626C35.2967 24.0724 35.6702 23.8747 36.0767 23.7946C36.4833 23.7145 36.9047 23.7556 37.2877 23.9127C37.6707 24.0698 37.998 24.3358 38.2283 24.6772C38.4586 25.0185 38.5815 25.4198 38.5815 25.8303C38.5815 26.3807 38.3607 26.9086 37.9676 27.2979C37.5746 27.6871 37.0415 27.9058 36.4856 27.9058ZM13.4092 27.9058C12.9947 27.9058 12.5895 27.7841 12.2448 27.556C11.9001 27.3279 11.6315 27.0038 11.4729 26.6245C11.3142 26.2453 11.2728 25.828 11.3536 25.4253C11.4345 25.0227 11.6341 24.6529 11.9272 24.3626C12.2203 24.0724 12.5938 23.8747 13.0003 23.7946C13.4069 23.7145 13.8283 23.7556 14.2113 23.9127C14.5942 24.0698 14.9216 24.3358 15.1519 24.6772C15.3822 25.0185 15.5051 25.4198 15.5051 25.8303C15.5051 26.3807 15.2843 26.9086 14.8912 27.2979C14.4982 27.6871 13.9651 27.9058 13.4092 27.9058ZM37.2279 15.4526L41.4196 8.2964C41.4762 8.19841 41.5127 8.09032 41.5269 7.97834C41.5412 7.86636 41.5329 7.7527 41.5027 7.64388C41.4725 7.53506 41.4208 7.43322 41.3507 7.34423C41.2806 7.25523 41.1935 7.18083 41.0942 7.12529C40.995 7.06976 40.8857 7.03418 40.7725 7.02061C40.6594 7.00704 40.5447 7.01574 40.4349 7.04621C40.3252 7.07668 40.2226 7.12832 40.1331 7.19817C40.0435 7.26802 39.9688 7.35469 39.9132 7.45322L35.6778 14.6959C32.314 13.1737 28.6568 12.3918 24.9583 12.4042C21.2556 12.3952 17.5935 13.1692 14.217 14.6743L9.98159 7.4316C9.86808 7.23494 9.68055 7.0908 9.46001 7.03071C9.23946 6.97061 9.00386 6.99944 8.80473 7.1109C8.60559 7.22236 8.45914 7.40738 8.39739 7.62549C8.33563 7.84359 8.36361 8.07704 8.47519 8.27478L12.6451 15.431C9.03964 17.3783 5.98154 20.1853 3.74766 23.598C1.51378 27.0107 0.174675 30.9212 -0.148438 34.9755H49.9996C49.6864 30.9241 48.3535 27.0148 46.1226 23.6046C43.8916 20.1943 40.8337 17.3917 37.2279 15.4526Z" fill="#3DDC84"/>
</g>
<defs>
<clipPath id="clip0_159_614">
<rect width="50" height="42" fill="white"/>
</clipPath>
</defs>
</svg>
