<svg width="53" height="42" viewBox="0 0 53 42" fill="none" xmlns="http://www.w3.org/2000/svg">
<path d="M3.04688 30.8594C3.18229 30.5885 3.32292 30.2865 3.46875 29.9531C3.61458 29.6094 3.75 29.2396 3.875 28.8438L4.29688 27.8125C4.10938 27.5312 3.91667 27.2292 3.71875 26.9062C3.53125 26.5729 3.35938 26.2344 3.20312 25.8906C3.04688 25.5469 2.91667 25.2031 2.8125 24.8594C2.71875 24.5156 2.67188 24.1823 2.67188 23.8594C2.67188 23.8385 2.75 23.8229 2.90625 23.8125C3.07292 23.7917 3.27604 23.776 3.51562 23.7656C3.76562 23.7552 4.03125 23.75 4.3125 23.75C4.60417 23.7396 4.86979 23.7344 5.10938 23.7344C5.35938 23.724 5.5625 23.7188 5.71875 23.7188C5.88542 23.7083 5.96875 23.7031 5.96875 23.7031C6.20833 23.0781 6.44271 22.4844 6.67188 21.9219C6.90104 21.3594 7.13021 20.7917 7.35938 20.2188C7.58854 19.6458 7.81771 19.0625 8.04688 18.4688C8.27604 17.8646 8.50521 17.2188 8.73438 16.5312C9.17188 15.2396 9.59896 14.1042 10.0156 13.125C10.4323 12.1458 10.8229 11.2344 11.1875 10.3906C11.2292 10.2865 11.2969 10.1927 11.3906 10.1094C11.4948 10.0156 11.6042 9.9375 11.7188 9.875C11.8333 9.8125 11.9427 9.76042 12.0469 9.71875C12.1615 9.67708 12.25 9.64583 12.3125 9.625C12.3542 9.61458 12.5104 9.56771 12.7812 9.48438C13.0625 9.40104 13.3802 9.3125 13.7344 9.21875C14.0885 9.125 14.4375 9.04167 14.7812 8.96875C15.1354 8.89583 15.4167 8.85938 15.625 8.85938H15.9062C16.0729 8.85938 16.2292 8.90104 16.375 8.98438C16.5312 9.05729 16.6354 9.20833 16.6875 9.4375C17.1875 10.7188 17.7188 12.1198 18.2812 13.6406C18.8542 15.151 19.4115 16.8177 19.9531 18.6406C20.2448 19.6198 20.5312 20.5469 20.8125 21.4219C21.0938 22.2969 21.375 23.151 21.6562 23.9844C21.9375 24.8177 22.2188 25.651 22.5 26.4844C22.7917 27.3177 23.0885 28.1771 23.3906 29.0625C23.4844 29.4375 23.5781 29.7344 23.6719 29.9531C23.776 30.1719 23.8698 30.3438 23.9531 30.4688C24.0365 30.5938 24.1042 30.6875 24.1562 30.75C24.2083 30.8021 24.2344 30.8594 24.2344 30.9219C24.2344 30.9844 24.1354 31.0469 23.9375 31.1094L20.5781 32.2031C20.3281 32.2969 20.0729 32.3906 19.8125 32.4844C19.5521 32.5781 19.3073 32.6615 19.0781 32.7344C18.849 32.8073 18.6458 32.8646 18.4688 32.9062C18.3021 32.9583 18.1823 32.9844 18.1094 32.9844H18.0156C17.8698 32.9844 17.7656 32.9375 17.7031 32.8438C17.6406 32.7604 17.599 32.6771 17.5781 32.5938C17.474 32.25 17.3698 31.9427 17.2656 31.6719C17.1615 31.3906 17.0573 31.1146 16.9531 30.8438C16.8594 30.5625 16.7604 30.2656 16.6562 29.9531C16.5625 29.6406 16.4688 29.2708 16.375 28.8438C16.3542 28.7917 16.2969 28.75 16.2031 28.7188C16.1094 28.6771 15.9948 28.6458 15.8594 28.625C15.7344 28.6042 15.599 28.5938 15.4531 28.5938C15.3073 28.5833 15.1719 28.5781 15.0469 28.5781C14.651 28.5781 14.3281 28.5833 14.0781 28.5938C13.8385 28.5938 13.625 28.599 13.4375 28.6094C13.25 28.6094 13.0677 28.6146 12.8906 28.625C12.724 28.625 12.5156 28.625 12.2656 28.625C11.9635 28.625 11.651 28.625 11.3281 28.625C11.0156 28.6146 10.7292 28.6042 10.4688 28.5938L9.57812 28.5625C9.30729 29.3125 9.03646 30.0156 8.76562 30.6719C8.49479 31.3281 8.20312 32.0052 7.89062 32.7031C7.86979 32.7865 7.81771 32.8542 7.73438 32.9062C7.66146 32.9583 7.58333 32.9844 7.5 32.9844C7.4375 32.9844 7.40104 32.9792 7.39062 32.9688C6.38021 32.6042 5.53125 32.2448 4.84375 31.8906C4.15625 31.5365 3.55729 31.1927 3.04688 30.8594ZM13.5781 16.8125C13.3281 17.7396 13.0781 18.5833 12.8281 19.3438C12.5885 20.0938 12.3646 20.7604 12.1562 21.3438C11.9583 21.9271 11.7865 22.4219 11.6406 22.8281C11.4948 23.224 11.3906 23.5312 11.3281 23.75V23.8906C11.3281 23.9531 11.3229 23.9948 11.3125 24.0156H15.0625C14.9479 23.5052 14.8229 22.9896 14.6875 22.4688C14.5625 21.9479 14.4375 21.401 14.3125 20.8281C14.1875 20.2552 14.0625 19.6406 13.9375 18.9844C13.8125 18.3281 13.6927 17.6042 13.5781 16.8125ZM43.6381 15.7656C43.6277 16.6615 43.5392 17.4635 43.3725 18.1719C43.2162 18.8802 42.9871 19.5208 42.685 20.0938C42.3933 20.6562 42.034 21.1667 41.6069 21.625C41.1902 22.0729 40.711 22.4948 40.1694 22.8906C39.1277 23.6406 37.9871 24.2083 36.7475 24.5938C35.5079 24.9688 34.2631 25.1562 33.0131 25.1562C32.8048 25.1562 32.5965 25.151 32.3881 25.1406C32.1902 25.1302 31.9871 25.1146 31.7787 25.0938L31.2631 30.7969L30.9975 31.2812C30.9767 31.3229 30.7996 31.4062 30.4662 31.5312C30.1329 31.6562 29.7162 31.8021 29.2162 31.9688L28.2319 32.2969C27.9194 32.4115 27.6433 32.5156 27.4037 32.6094C27.1642 32.7031 26.9402 32.7865 26.7319 32.8594C26.5235 32.9323 26.3204 32.9844 26.1225 33.0156C25.9246 33.0573 25.7162 33.0781 25.4975 33.0781C25.3517 33.0781 25.2371 33.0417 25.1537 32.9688C25.0704 32.8958 25.0287 32.7552 25.0287 32.5469L25.2006 29.875C25.2319 29.3438 25.2683 28.8125 25.31 28.2812C25.3621 27.7396 25.409 27.125 25.4506 26.4375L25.7475 22.7031C25.81 21.9427 25.8673 21.1823 25.9194 20.4219C25.9715 19.6615 26.0235 18.9375 26.0756 18.25C26.1277 17.5625 26.1746 16.9219 26.2162 16.3281C26.2579 15.724 26.2944 15.1979 26.3256 14.75C25.7631 14.875 25.31 14.9688 24.9662 15.0312C24.6329 15.0833 24.3777 15.1094 24.2006 15.1094C23.9819 15.1094 23.8725 15.0156 23.8725 14.8281C24.0183 14.3177 24.1537 13.8177 24.2787 13.3281C24.3933 12.9115 24.5079 12.4844 24.6225 12.0469C24.7475 11.599 24.8517 11.224 24.935 10.9219C24.9871 10.7344 25.0444 10.5938 25.1069 10.5C25.1798 10.3958 25.2683 10.3177 25.3725 10.2656C25.4871 10.2031 25.6277 10.151 25.7944 10.1094C25.9715 10.0573 26.185 9.98958 26.435 9.90625C26.6329 9.84375 26.909 9.77604 27.2631 9.70312C27.6277 9.61979 28.0392 9.54167 28.4975 9.46875C28.9662 9.38542 29.4715 9.30729 30.0131 9.23438C30.5548 9.16146 31.1017 9.09896 31.6537 9.04688C32.2162 8.98438 32.7683 8.9375 33.31 8.90625C33.8517 8.86458 34.3621 8.84375 34.8412 8.84375C36.0287 8.84375 37.1537 8.95312 38.2162 9.17188C39.2787 9.39062 40.211 9.76562 41.0131 10.2969C41.8152 10.8177 42.4506 11.526 42.9194 12.4219C43.3985 13.3073 43.6381 14.4219 43.6381 15.7656ZM32.2162 20.4531C32.2162 20.5677 32.2371 20.6719 32.2787 20.7656C32.3204 20.849 32.435 20.8906 32.6225 20.8906C32.9142 20.8906 33.2579 20.8281 33.6537 20.7031C34.06 20.5677 34.461 20.3698 34.8569 20.1094C35.2631 19.849 35.6381 19.526 35.9819 19.1406C36.3256 18.7552 36.586 18.3021 36.7631 17.7812C36.836 17.5729 36.8933 17.3073 36.935 16.9844C36.9871 16.6615 37.0131 16.2812 37.0131 15.8438C37.0131 15.1146 36.7579 14.5781 36.2475 14.2344C35.7475 13.8906 35.0912 13.7188 34.2787 13.7188C34.1433 13.7188 33.9871 13.7292 33.81 13.75C33.6433 13.7604 33.4819 13.7865 33.3256 13.8281C33.1798 13.8698 33.0548 13.9219 32.9506 13.9844C32.8465 14.0365 32.7892 14.1094 32.7787 14.2031L32.7475 14.5469C32.7371 14.6823 32.7162 14.9062 32.685 15.2188C32.6537 15.5208 32.6173 15.8698 32.5756 16.2656C32.5444 16.6615 32.5079 17.0781 32.4662 17.5156C32.435 17.9531 32.3985 18.3698 32.3569 18.7656C32.3256 19.1615 32.2944 19.5104 32.2631 19.8125C32.2423 20.1146 32.2267 20.3281 32.2162 20.4531ZM43.4481 32.5L44.2294 21.8125C44.4898 18.2292 44.6825 15.599 44.8075 13.9219C44.9325 12.2448 44.995 11.4115 44.995 11.4219C45.0054 11.2344 45.0158 11.0781 45.0262 10.9531C45.0367 10.8281 45.0575 10.724 45.0887 10.6406C45.12 10.5573 45.1617 10.4948 45.2137 10.4531C45.2658 10.4115 45.344 10.3802 45.4481 10.3594L50.8544 9.0625C50.9898 9.02083 51.1304 9 51.2762 9C51.4221 9 51.521 9.04688 51.5731 9.14062C51.6252 9.22396 51.6512 9.40104 51.6512 9.67188C51.5783 10.3177 51.521 10.9219 51.4794 11.4844C51.4377 12.0469 51.4012 12.5833 51.37 13.0938C51.3492 13.6042 51.3283 14.099 51.3075 14.5781C51.2867 15.0469 51.2606 15.5156 51.2294 15.9844C51.1669 16.4948 51.1096 17.0052 51.0575 17.5156C51.0158 18.026 50.9742 18.5573 50.9325 19.1094C50.8908 19.651 50.844 20.2292 50.7919 20.8438C50.7502 21.4479 50.6981 22.1094 50.6356 22.8281L49.9481 31.0625C49.9377 31.1562 49.9169 31.25 49.8856 31.3438C49.8648 31.4271 49.7971 31.4948 49.6825 31.5469C49.6721 31.5469 49.6096 31.5677 49.495 31.6094C49.3804 31.651 49.2294 31.7083 49.0419 31.7812C48.8544 31.8438 48.6356 31.9115 48.3856 31.9844C48.1356 32.0573 47.87 32.125 47.5887 32.1875C47.12 32.2917 46.7085 32.3958 46.3544 32.5C46.0106 32.6042 45.7033 32.6979 45.4325 32.7812C45.1617 32.875 44.9117 32.9479 44.6825 33C44.4533 33.0521 44.2242 33.0781 43.995 33.0781C43.8387 33.0781 43.7085 33.0365 43.6044 32.9531C43.5002 32.8698 43.4481 32.7188 43.4481 32.5Z" fill="#282828"/>
</svg>
