<svg width="145" height="42" viewBox="0 0 145 42" fill="none" xmlns="http://www.w3.org/2000/svg">
<g clip-path="url(#clip0_254_1616)">
<path d="M2.31633 34V7.34918H7.85991V17.3693H8.02908C8.27199 16.8314 8.62335 16.2848 9.08314 15.7296C9.55161 15.1657 10.1589 14.6972 10.905 14.3242C11.6597 13.9425 12.5967 13.7516 13.7158 13.7516C15.1733 13.7516 16.518 14.1333 17.7499 14.8968C18.9818 15.6515 19.9664 16.7923 20.7038 18.3192C21.4412 19.8374 21.81 21.7417 21.81 24.032C21.81 26.2615 21.4499 28.1441 20.7299 29.6797C20.0185 31.2065 19.0468 32.3647 17.8149 33.1541C16.5917 33.9349 15.221 34.3253 13.7028 34.3253C12.627 34.3253 11.7118 34.1475 10.957 33.7918C10.2109 33.4361 9.59933 32.9893 9.12218 32.4514C8.64503 31.9049 8.28067 31.354 8.02908 30.7988H7.78183V34H2.31633ZM7.74279 24.0059C7.74279 25.1945 7.90763 26.2312 8.23729 27.1161C8.56695 28.001 9.0441 28.6907 9.66873 29.1852C10.2934 29.671 11.0525 29.9139 11.946 29.9139C12.8483 29.9139 13.6117 29.6666 14.2363 29.1721C14.861 28.669 15.3338 27.9749 15.6548 27.09C15.9844 26.1965 16.1493 25.1684 16.1493 24.0059C16.1493 22.8521 15.9888 21.8371 15.6678 20.9609C15.3468 20.0847 14.874 19.3993 14.2493 18.9048C13.6247 18.4103 12.8569 18.1631 11.946 18.1631C11.0438 18.1631 10.2803 18.4016 9.65572 18.8788C9.03976 19.3559 8.56695 20.0326 8.23729 20.9088C7.90763 21.785 7.74279 22.8174 7.74279 24.0059ZM29.5596 34.3774C28.2844 34.3774 27.1479 34.1562 26.1502 33.7137C25.1525 33.2626 24.3631 32.5989 23.7818 31.7227C23.2092 30.8378 22.923 29.736 22.923 28.4174C22.923 27.3069 23.1268 26.3743 23.5346 25.6196C23.9423 24.8648 24.4975 24.2575 25.2003 23.7977C25.903 23.3379 26.7011 22.9909 27.5947 22.7567C28.4969 22.5224 29.4425 22.3576 30.4315 22.2622C31.594 22.1407 32.531 22.028 33.2423 21.9238C33.9537 21.8111 34.4699 21.6462 34.7909 21.4293C35.1119 21.2125 35.2724 20.8915 35.2724 20.4664V20.3883C35.2724 19.5641 35.0121 18.9265 34.4916 18.4754C33.9798 18.0243 33.251 17.7987 32.3054 17.7987C31.3077 17.7987 30.5139 18.0199 29.924 18.4624C29.3341 18.8961 28.9437 19.4427 28.7528 20.102L23.6257 19.6856C23.8859 18.471 24.3978 17.4213 25.1612 16.5364C25.9246 15.6429 26.9093 14.9575 28.1152 14.4804C29.3297 13.9945 30.7352 13.7516 32.3314 13.7516C33.4419 13.7516 34.5046 13.8818 35.5196 14.142C36.5433 14.4023 37.4499 14.8057 38.2394 15.3522C39.0375 15.8988 39.6665 16.6015 40.1263 17.4604C40.5861 18.3105 40.816 19.3299 40.816 20.5184V34H35.5587V31.2282H35.4025C35.0815 31.8528 34.6521 32.4037 34.1142 32.8809C33.5763 33.3493 32.93 33.718 32.1753 33.987C31.4205 34.2472 30.5486 34.3774 29.5596 34.3774ZM31.1472 30.5515C31.9627 30.5515 32.6828 30.391 33.3074 30.07C33.932 29.7404 34.4222 29.2979 34.7779 28.7427C35.1336 28.1875 35.3114 27.5585 35.3114 26.8558V24.7347C35.1379 24.8475 34.8993 24.9516 34.5957 25.047C34.3007 25.1337 33.9667 25.2162 33.5937 25.2942C33.2207 25.3636 32.8476 25.4287 32.4746 25.4894C32.1015 25.5415 31.7632 25.5892 31.4596 25.6326C30.8089 25.728 30.2407 25.8798 29.7548 26.088C29.269 26.2962 28.8916 26.5782 28.6227 26.9339C28.3538 27.2809 28.2193 27.7147 28.2193 28.2352C28.2193 28.99 28.4926 29.5669 29.0391 29.9659C29.5943 30.3563 30.297 30.5515 31.1472 30.5515ZM52.4989 34.3904C50.4515 34.3904 48.6904 33.9566 47.2155 33.0891C45.7494 32.2129 44.6216 30.9983 43.8321 29.4454C43.0514 27.8925 42.661 26.1054 42.661 24.084C42.661 22.0366 43.0557 20.2408 43.8452 18.6966C44.6433 17.1437 45.7754 15.9335 47.2416 15.0659C48.7077 14.1897 50.4515 13.7516 52.4728 13.7516C54.2166 13.7516 55.7435 14.0683 57.0534 14.7016C58.3634 15.3349 59.4001 16.2241 60.1636 17.3693C60.927 18.5144 61.3478 19.8591 61.4258 21.4033H56.1946C56.0471 20.4057 55.6567 19.6032 55.0234 18.9959C54.3988 18.3799 53.579 18.072 52.5639 18.072C51.7051 18.072 50.9546 18.3062 50.3127 18.7747C49.6794 19.2345 49.1849 19.9068 48.8292 20.7917C48.4735 21.6766 48.2956 22.748 48.2956 24.0059C48.2956 25.2812 48.4691 26.3656 48.8162 27.2592C49.1719 28.1528 49.6707 28.8338 50.3127 29.3023C50.9546 29.7707 51.7051 30.005 52.5639 30.005C53.1972 30.005 53.7655 29.8748 54.2686 29.6146C54.7805 29.3543 55.2013 28.9769 55.5309 28.4824C55.8693 27.9793 56.0905 27.3763 56.1946 26.6736H61.4258C61.3391 28.2005 60.9227 29.5452 60.1766 30.7077C59.4392 31.8615 58.4198 32.7638 57.1185 33.4144C55.8172 34.0651 54.2773 34.3904 52.4989 34.3904ZM68.3492 28.2482L68.3622 21.5985H69.169L75.5715 14.0119H81.9349L73.3332 24.058H72.0189L68.3492 28.2482ZM63.3262 34V7.34918H68.8697V34H63.3262ZM75.8187 34L69.9368 25.2942L73.6325 21.3773L82.3123 34H75.8187ZM92.1148 34.3904C90.0587 34.3904 88.2889 33.974 86.8054 33.1411C85.3306 32.2996 84.1941 31.1111 83.396 29.5755C82.5979 28.0313 82.1988 26.2052 82.1988 24.097C82.1988 22.041 82.5979 20.2365 83.396 18.6836C84.1941 17.1307 85.3176 15.9205 86.7664 15.0529C88.2239 14.1854 89.9329 13.7516 91.8935 13.7516C93.2122 13.7516 94.4398 13.9642 95.5763 14.3893C96.7214 14.8057 97.7191 15.4346 98.5693 16.2762C99.4281 17.1177 100.096 18.1761 100.573 19.4514C101.05 20.718 101.289 22.2015 101.289 23.9018V25.4244H84.411V21.9889H96.0707C96.0707 21.1908 95.8972 20.4837 95.5502 19.8678C95.2032 19.2518 94.7217 18.7703 94.1058 18.4233C93.4985 18.0676 92.7914 17.8898 91.9846 17.8898C91.1431 17.8898 90.397 18.085 89.7464 18.4754C89.1044 18.8571 88.6012 19.3733 88.2369 20.0239C87.8725 20.6659 87.686 21.3816 87.6773 22.1711V25.4374C87.6773 26.4264 87.8595 27.2809 88.2239 28.001C88.5969 28.721 89.1218 29.2762 89.7984 29.6666C90.4751 30.057 91.2776 30.2522 92.2059 30.2522C92.8218 30.2522 93.3857 30.1655 93.8976 29.992C94.4094 29.8185 94.8475 29.5582 95.2119 29.2112C95.5763 28.8642 95.8539 28.4391 96.0447 27.9359L101.172 28.2742C100.912 29.5061 100.378 30.5819 99.5713 31.5015C98.7731 32.4124 97.7408 33.1238 96.4742 33.6356C95.2162 34.1388 93.7631 34.3904 92.1148 34.3904ZM108.801 22.4444V34H103.258V14.0119H108.541V17.5384H108.775C109.218 16.3759 109.959 15.4563 111 14.7797C112.041 14.0943 113.304 13.7516 114.787 13.7516C116.175 13.7516 117.386 14.0553 118.418 14.6625C119.45 15.2698 120.253 16.1374 120.825 17.2652C121.398 18.3843 121.684 19.7203 121.684 21.2732V34H116.141V22.2622C116.149 21.039 115.837 20.0847 115.204 19.3993C114.57 18.7053 113.698 18.3583 112.588 18.3583C111.842 18.3583 111.183 18.5188 110.61 18.8397C110.046 19.1607 109.604 19.6292 109.283 20.2452C108.97 20.8524 108.81 21.5855 108.801 22.4444ZM131.77 34.3253C130.252 34.3253 128.876 33.9349 127.645 33.1541C126.421 32.3647 125.45 31.2065 124.73 29.6797C124.018 28.1441 123.663 26.2615 123.663 24.032C123.663 21.7417 124.031 19.8374 124.769 18.3192C125.506 16.7923 126.486 15.6515 127.71 14.8968C128.942 14.1333 130.291 13.7516 131.757 13.7516C132.876 13.7516 133.808 13.9425 134.555 14.3242C135.309 14.6972 135.917 15.1657 136.376 15.7296C136.845 16.2848 137.2 16.8314 137.443 17.3693H137.613V7.34918H143.143V34H137.678V30.7988H137.443C137.183 31.354 136.814 31.9049 136.337 32.4514C135.869 32.9893 135.257 33.4361 134.502 33.7918C133.756 34.1475 132.845 34.3253 131.77 34.3253ZM133.526 29.9139C134.42 29.9139 135.175 29.671 135.791 29.1852C136.415 28.6907 136.893 28.001 137.222 27.1161C137.561 26.2312 137.73 25.1945 137.73 24.0059C137.73 22.8174 137.565 21.785 137.235 20.9088C136.906 20.0326 136.428 19.3559 135.804 18.8788C135.179 18.4016 134.42 18.1631 133.526 18.1631C132.616 18.1631 131.848 18.4103 131.223 18.9048C130.599 19.3993 130.126 20.0847 129.805 20.9609C129.484 21.8371 129.323 22.8521 129.323 24.0059C129.323 25.1684 129.484 26.1965 129.805 27.09C130.134 27.9749 130.607 28.669 131.223 29.1721C131.848 29.6666 132.616 29.9139 133.526 29.9139Z" fill="#282828"/>
</g>
<defs>
<clipPath id="clip0_254_1616">
<rect width="145" height="42" fill="white"/>
</clipPath>
</defs>
</svg>
