<svg width="35" height="42" viewBox="0 0 35 42" fill="none" xmlns="http://www.w3.org/2000/svg">
<path d="M1.5828 18.9251C0.709931 9.14 0 1.10476 0 1.06984V1.06596C0.00387941 1.00388 0.865108 1 17.5 1C34.1349 1 34.9961 1.00388 35 1.06596C35 1.10476 34.2901 9.14 31.8344 36.7144L24.6769 38.7241C20.7393 39.8299 17.4922 40.7339 17.4612 40.7339C17.4302 40.7339 14.1986 39.8299 3.1656 36.7144L1.5828 18.9251Z" fill="#F1DD3F"/>
<path d="M18.6641 12.5307C18.6602 12.5152 18.9085 11.5375 19.215 10.3619L19.7697 8.21631H24.1224C27.5828 8.21631 28.479 8.22795 28.479 8.26287C28.479 8.29003 28.0523 13.264 27.5285 19.3128C27.0048 25.3615 26.5664 30.3705 26.5199 30.5761L22.1362 31.7866C19.7232 32.4501 17.7059 33.0088 17.5391 33.0476V30.7391C17.5391 29.4703 17.5468 28.4305 17.5585 28.4305C17.5701 28.4305 18.6486 28.1434 19.9521 27.7865C21.2594 27.4334 22.334 27.1424 22.3379 27.1385C22.3379 27.1346 22.4581 25.9164 22.5978 24.4342C22.7375 22.9521 22.8616 21.6795 22.8926 21.4855H17.5391V17.0625H20.4098C22.9353 17.0625 23.2806 17.0547 23.2806 17.0043C23.2806 16.9732 23.3582 16.0343 23.4552 14.9169C23.5483 13.8033 23.6375 12.8179 23.6685 12.5618H21.1663C19.7891 12.5618 18.6641 12.5501 18.6641 12.5307Z" fill="#70716F"/>
<path fill-rule="evenodd" clip-rule="evenodd" d="M12.0293 8.21631C15.0591 8.21631 17.538 8.22019 17.538 8.22795C17.538 8.23183 17.2859 9.2018 16.9755 10.3813C16.6652 11.5569 16.413 12.5307 16.413 12.5424C16.413 12.554 15.2686 12.5618 11.331 12.5618L11.3504 12.7247C11.362 12.8179 11.4512 13.8033 11.5443 14.9169C11.6413 16.0343 11.7189 16.9732 11.7189 17.0043C11.7189 17.0547 11.94 17.0625 13.4646 17.0625C14.4267 17.0625 15.2104 17.0741 15.2104 17.0896C15.2104 17.109 14.9543 18.1023 14.066 21.4855H13.0845C12.1806 21.4855 12.1069 21.4894 12.1069 21.5554C12.1069 21.5903 12.2116 22.8629 12.5801 27.1308L12.0331 29.2259C11.7344 30.3782 11.4861 31.3327 11.4861 31.3521C11.4861 31.3676 11.4551 31.3792 11.4163 31.3792C11.3814 31.3754 10.7064 31.1969 8.47961 30.5761L8.44857 30.4442C8.43305 30.3705 7.99468 25.3615 7.47096 19.3128C6.94724 13.264 6.52051 8.29003 6.52051 8.26287C6.52051 8.22795 7.64941 8.21631 12.0293 8.21631V8.21631ZM17.4992 17.0625C17.5264 17.0625 17.538 17.788 17.538 21.4855H16.9173C16.3432 21.4855 16.2966 21.4816 16.316 21.4196C16.3238 21.3808 16.5798 20.4069 16.8785 19.2546C17.1811 18.1023 17.4333 17.1362 17.441 17.109C17.4527 17.0857 17.476 17.0625 17.4992 17.0625V17.0625ZM14.7138 27.7321C14.741 27.7321 15.3772 27.899 16.122 28.1007C16.8708 28.3025 17.4915 28.4577 17.5109 28.446C17.5264 28.4383 17.538 29.4703 17.538 30.7391C17.538 32.9118 17.5341 33.0476 17.4721 33.0437C17.4333 33.0437 16.5371 32.8032 15.4819 32.5083C13.744 32.0272 13.5616 31.969 13.5733 31.8991C13.581 31.8603 13.8216 30.9253 14.1086 29.8273C14.3957 28.7293 14.6362 27.8059 14.6479 27.7787C14.6556 27.7554 14.6867 27.7321 14.7138 27.7321Z" fill="#323330"/>
<path fill-rule="evenodd" clip-rule="evenodd" d="M17.539 3.87109H24.6771C28.603 3.87109 31.8152 3.87497 31.8152 3.88273C31.8152 3.88661 31.2061 10.7618 30.4574 19.1578C29.7125 27.5539 29.088 34.4368 29.0724 34.4485C29.053 34.4601 26.4849 35.174 23.3581 36.0315C20.2313 36.8889 17.6437 37.599 17.6049 37.6067C17.5428 37.6261 17.539 37.4981 17.539 33.0478L17.6476 33.0207C17.7058 33.009 19.727 32.4503 26.5198 30.5764L26.5508 30.4444C26.5663 30.3707 27.0047 25.3618 27.5284 19.313C28.0522 13.2643 28.4789 8.29029 28.4789 8.26313C28.4789 8.22821 27.5827 8.21657 19.7696 8.21657L19.2149 10.3621C18.9084 11.5378 18.6601 12.5155 18.664 12.531C18.664 12.5504 19.789 12.562 23.6684 12.562L23.649 12.725C23.6374 12.8181 23.5482 13.8036 23.4551 14.9171C23.3581 16.0345 23.2805 16.9735 23.2805 17.0045C23.2805 17.055 22.9352 17.0627 17.539 17.0627L17.5312 12.7056C17.5235 10.3117 17.5235 7.34359 17.5312 6.10979L17.539 3.87109ZM17.5351 21.4858H22.8887L22.8732 21.6138C22.8615 21.6837 22.7374 22.9524 22.5977 24.4345C22.4542 25.9205 22.3378 27.1349 22.3339 27.1388C22.33 27.1465 21.2593 27.4375 19.952 27.7906C18.6446 28.1437 17.5661 28.4308 17.5545 28.4308C17.5467 28.4308 17.5351 26.8711 17.5351 24.9583V21.4858Z" fill="#F5E779"/>
</svg>
