<svg width="42" height="42" viewBox="0 0 42 42" fill="none" xmlns="http://www.w3.org/2000/svg">
<g clip-path="url(#clip0_159_606)">
<path d="M0 9C0 4.02944 4.02944 0 9 0H33C37.9706 0 42 4.02944 42 9V33C42 37.9706 37.9706 42 33 42H9C4.02944 42 0 37.9706 0 33V9Z" fill="#282828"/>
<path d="M17.5385 12.1967C16.2323 12.2139 15.1076 12.4699 14.0028 13.0205C11.181 14.426 9.55166 17.3859 9.55166 21.1155C9.55166 24.8535 11.1545 27.7256 13.986 29.0692C14.7509 29.4321 15.5176 29.6297 16.6816 29.7681C17.2707 29.7917 17.8217 29.8336 18.3954 29.7681C19.5594 29.6297 20.3262 29.4321 21.0911 29.0692C23.9228 27.7256 25.5256 24.8537 25.5256 21.1155C25.5256 17.3859 23.896 14.426 21.0745 13.0205C19.9694 12.4699 18.845 12.2139 17.5385 12.1967ZM18.6618 14.8258C20.356 15.2773 21.5853 16.8058 22.0561 19.0356C22.3873 20.6016 22.297 22.411 21.8233 23.8362C21.0857 26.0556 19.4844 27.309 17.5385 27.2889C15.5926 27.309 13.9914 26.0556 13.254 23.8362C12.7808 22.411 12.6902 20.6016 13.0209 19.0356C13.492 16.8058 14.7213 15.2773 16.4155 14.8258C17.1837 14.6631 17.949 14.6924 18.6618 14.8258ZM6.28844 12.1967C5.95346 12.1967 5.62599 12.296 5.34746 12.4821C5.06893 12.6682 4.85185 12.9327 4.72365 13.2422C4.59546 13.5517 4.56192 13.8923 4.62727 14.2208C4.69262 14.5494 4.85393 14.8512 5.0908 15.088C5.32767 15.3249 5.62946 15.4862 5.95801 15.5516C6.28656 15.6169 6.62711 15.5834 6.9366 15.4552C7.24608 15.327 7.5106 15.1099 7.69671 14.8314C7.88282 14.5528 7.98215 14.2254 7.98215 13.8904C7.98215 13.4412 7.80371 13.0104 7.48608 12.6928C7.16844 12.3751 6.73764 12.1967 6.28844 12.1967ZM4.70592 17.3644V29.8033H7.87096V17.3644H4.70592ZM30.1277 29.7773C28.7716 29.545 27.4673 29.3652 26.3601 28.7363C26.3454 28.7233 27.0138 26.2259 27.0438 26.1812C28.8234 26.7855 31.3284 27.6329 33.0173 26.8564C33.9381 26.3958 34.3917 25.5443 34.2393 24.5616C34.0678 23.4569 33.3029 22.8203 31.2032 22.0353C28.861 21.1599 27.4888 20.0837 26.9269 18.6846C26.6508 17.9963 26.5595 17.1205 26.6835 16.3554C27.0289 14.2273 28.6867 12.747 31.2309 12.2944C31.9679 12.1633 33.5442 12.1621 34.3197 12.2918C35.4374 12.4787 36.7192 12.9015 36.7192 13.0832C36.7192 13.1501 36.0643 15.4592 36.0307 15.5103C34.9256 15.0726 33.6862 14.7598 32.6374 14.7532C31.1535 14.7345 29.5448 15.6153 29.8287 17.1714C30.0295 18.1463 30.6517 18.6223 32.9419 19.5528C34.6287 20.2389 35.4381 20.7121 36.1318 21.4162C37.0958 22.3788 37.4006 23.5083 37.4077 24.6278C37.4103 25.5602 37.3232 25.9953 36.9906 26.7152C36.1824 28.4637 34.5387 29.4774 32.0594 29.7563C31.5957 29.8081 30.5032 29.8199 30.1289 29.7773H30.1277Z" fill="white"/>
</g>
<defs>
<clipPath id="clip0_159_606">
<rect width="42" height="42" fill="white"/>
</clipPath>
</defs>
</svg>
