<svg width="42" height="42" viewBox="0 0 42 42" fill="none" xmlns="http://www.w3.org/2000/svg">
<g clip-path="url(#clip0_159_612)">
<path d="M19.5176 25.4965C19.5176 29.0294 17.6771 31.2529 14.7371 31.2529C11.7971 31.2529 9.95647 29.0171 9.95647 25.4965C9.95647 21.9512 11.7971 19.7276 14.7371 19.7276C17.6771 19.7276 19.5176 21.9512 19.5176 25.4965ZM23.6188 13.0324L22.3341 13.1188C21.6053 13.1682 21.2841 13.4276 21.2841 13.8971C21.2841 14.3912 21.6918 14.6629 22.26 14.6629C23.0382 14.6629 23.6188 14.1565 23.6188 13.4771V13.0324ZM42 21C42 32.7229 32.7229 42 21 42C9.27706 42 0 32.7229 0 21C0 9.27706 9.27706 0 21 0C32.7229 0 42 9.27706 42 21ZM25.8671 12.7729C25.8671 14.4776 26.8059 15.5153 28.3376 15.5153C29.6347 15.5153 30.45 14.7865 30.5859 13.7488H29.5729C29.4371 14.3171 28.9924 14.6259 28.3376 14.6259C27.4729 14.6259 26.9418 13.9218 26.9418 12.7729C26.9418 11.6365 27.4729 10.9571 28.3376 10.9571C29.0294 10.9571 29.4618 11.3524 29.5729 11.8588H30.5859C30.45 10.8459 29.6594 10.08 28.3376 10.08C26.8059 10.0676 25.8671 11.1053 25.8671 12.7729ZM11.7476 10.1788V15.4165H12.7853V12.2047C12.7853 11.5253 13.2671 10.9818 13.8971 10.9818C14.5147 10.9818 14.91 11.3524 14.91 11.9453V15.4165H15.9229V12.1059C15.9229 11.4759 16.3553 10.9818 17.0347 10.9818C17.7141 10.9818 18.0476 11.3276 18.0476 12.0565V15.4165H19.0853V11.7971C19.0853 10.71 18.4676 10.0676 17.4053 10.0676C16.6765 10.0676 16.0712 10.4382 15.8118 11.0065H15.7253C15.4906 10.4382 14.9965 10.0676 14.28 10.0676C13.5759 10.0676 13.0447 10.4135 12.8224 11.0065H12.7482V10.1665L11.7476 10.1788ZM21.3582 25.4965C21.3582 20.9382 18.8135 18.0724 14.7371 18.0724C10.6606 18.0724 8.11588 20.9382 8.11588 25.4965C8.11588 30.0547 10.6606 32.9082 14.7371 32.9082C18.8135 32.9082 21.3582 30.0424 21.3582 25.4965ZM22.0006 15.5029C22.6924 15.5029 23.2606 15.2065 23.5818 14.6753H23.6682V15.4165H24.6688V11.8341C24.6688 10.7347 23.9276 10.08 22.6059 10.08C21.4076 10.08 20.5676 10.6606 20.4565 11.5376H21.4571C21.5682 11.1547 21.9759 10.9447 22.5565 10.9447C23.2606 10.9447 23.6312 11.2659 23.6312 11.8465V12.3035L22.2106 12.39C20.9629 12.4641 20.2588 13.0076 20.2588 13.9588C20.2465 14.8976 20.9876 15.5029 22.0006 15.5029ZM33.3282 28.5847C33.3282 26.5465 32.1424 25.3606 29.1529 24.7059L27.5594 24.36C25.5953 23.9276 24.8294 23.1494 24.8294 22.0253C24.8294 20.5676 26.2129 19.6906 28.0041 19.6906C29.8818 19.6906 31.1171 20.6541 31.2776 22.2353H33.0688C32.9824 19.8018 30.9194 18.0847 28.0535 18.0847C25.0765 18.0847 22.9888 19.7524 22.9888 22.1118C22.9888 24.15 24.2365 25.4594 27.1147 26.0894L28.7082 26.4353C30.6971 26.8676 31.5 27.6706 31.5 28.8688C31.5 30.2771 30.0794 31.3024 28.14 31.3024C26.0771 31.3024 24.6441 30.3635 24.4341 28.8194H22.6429C22.8159 31.3024 24.9035 32.9082 28.0412 32.9082C31.2406 32.9082 33.3282 31.2406 33.3282 28.5847Z" fill="#1D1D1F"/>
</g>
<defs>
<clipPath id="clip0_159_612">
<rect width="42" height="42" fill="white"/>
</clipPath>
</defs>
</svg>
