<svg width="660" height="406" viewBox="0 0 660 406" fill="none" xmlns="http://www.w3.org/2000/svg">
<rect width="204" height="204" rx="17" fill="white"/>
<circle cx="30" cy="30" r="6" fill="white"/>
<circle cx="54" cy="30" r="6" fill="white"/>
<circle cx="78" cy="30" r="6" fill="white"/>
<circle cx="102" cy="30" r="6" fill="white"/>
<circle cx="126" cy="30" r="6" fill="white"/>
<circle cx="150" cy="30" r="6" fill="white"/>
<circle cx="174" cy="30" r="6" fill="white"/>
<circle cx="30" cy="54" r="6" fill="white"/>
<circle cx="54" cy="54" r="6" fill="white"/>
<circle cx="78" cy="54" r="6" fill="white"/>
<circle cx="102" cy="54" r="6" fill="white"/>
<circle cx="126" cy="54" r="6" fill="white"/>
<circle cx="150" cy="54" r="6" fill="white"/>
<circle cx="174" cy="54" r="6" fill="white"/>
<circle cx="30" cy="78" r="6" fill="white"/>
<circle cx="54" cy="78" r="6" fill="white"/>
<circle cx="78" cy="78" r="6" fill="#302234" fill-opacity="0.8"/>
<circle cx="102" cy="78" r="6" fill="white"/>
<circle cx="126" cy="78" r="6" fill="white"/>
<circle cx="150" cy="78" r="6" fill="white"/>
<circle cx="174" cy="78" r="6" fill="white"/>
<circle cx="30" cy="102" r="6" fill="white"/>
<circle cx="54" cy="102" r="6" fill="white"/>
<circle cx="78" cy="102" r="6" fill="#302234" fill-opacity="0.8"/>
<circle cx="102" cy="102" r="6" fill="white"/>
<circle cx="126" cy="102" r="6" fill="white"/>
<circle cx="150" cy="102" r="6" fill="white"/>
<circle cx="174" cy="102" r="6" fill="white"/>
<circle cx="30" cy="126" r="6" fill="#302234" fill-opacity="0.8"/>
<circle cx="54" cy="126" r="6" fill="white"/>
<circle cx="78" cy="126" r="6" fill="#302234" fill-opacity="0.8"/>
<circle cx="102" cy="126" r="6" fill="white"/>
<circle cx="126" cy="126" r="6" fill="white"/>
<circle cx="150" cy="126" r="6" fill="white"/>
<circle cx="174" cy="126" r="6" fill="#302234" fill-opacity="0.8"/>
<circle cx="30" cy="150" r="6" fill="#302234" fill-opacity="0.8"/>
<circle cx="54" cy="150" r="6" fill="white"/>
<circle cx="78" cy="150" r="6" fill="#302234" fill-opacity="0.8"/>
<circle cx="102" cy="150" r="6" fill="white"/>
<circle cx="126" cy="150" r="6" fill="#302234" fill-opacity="0.8"/>
<circle cx="150" cy="150" r="6" fill="white"/>
<circle cx="174" cy="150" r="6" fill="#302234" fill-opacity="0.8"/>
<circle cx="30" cy="174" r="6" fill="#302234" fill-opacity="0.8"/>
<circle cx="54" cy="174" r="6" fill="white"/>
<circle cx="78" cy="174" r="6" fill="#302234" fill-opacity="0.8"/>
<circle cx="102" cy="174" r="6" fill="white"/>
<circle cx="126" cy="174" r="6" fill="#302234" fill-opacity="0.8"/>
<circle cx="150" cy="174" r="6" fill="white"/>
<circle cx="174" cy="174" r="6" fill="#302234" fill-opacity="0.8"/>
<rect x="228" width="204" height="204" rx="17" fill="white"/>
<circle cx="258" cy="30" r="6" fill="white"/>
<circle cx="282" cy="30" r="6" fill="white"/>
<circle cx="306" cy="30" r="6" fill="white"/>
<circle cx="330" cy="30" r="6" fill="white"/>
<circle cx="354" cy="30" r="6" fill="white"/>
<circle cx="378" cy="30" r="6" fill="#302234" fill-opacity="0.8"/>
<circle cx="402" cy="30" r="6" fill="#302234" fill-opacity="0.8"/>
<circle cx="258" cy="54" r="6" fill="white"/>
<circle cx="282" cy="54" r="6" fill="white"/>
<circle cx="306" cy="54" r="6" fill="white"/>
<circle cx="330" cy="54" r="6" fill="white"/>
<circle cx="354" cy="54" r="6" fill="white"/>
<circle cx="378" cy="54" r="6" fill="#302234" fill-opacity="0.8"/>
<circle cx="402" cy="54" r="6" fill="#302234" fill-opacity="0.8"/>
<circle cx="258" cy="78" r="6" fill="white"/>
<circle cx="282" cy="78" r="6" fill="white"/>
<circle cx="306" cy="78" r="6" fill="white"/>
<circle cx="330" cy="78" r="6" fill="white"/>
<circle cx="354" cy="78" r="6" fill="white"/>
<circle cx="378" cy="78" r="6" fill="white"/>
<circle cx="402" cy="78" r="6" fill="white"/>
<circle cx="258" cy="102" r="6" fill="white"/>
<circle cx="282" cy="102" r="6" fill="#302234" fill-opacity="0.8"/>
<circle cx="306" cy="102" r="6" fill="#302234" fill-opacity="0.8"/>
<circle cx="330" cy="102" r="6" fill="#302234" fill-opacity="0.8"/>
<circle cx="354" cy="102" r="6" fill="white"/>
<circle cx="378" cy="102" r="6" fill="white"/>
<circle cx="402" cy="102" r="6" fill="white"/>
<circle cx="258" cy="126" r="6" fill="white"/>
<circle cx="282" cy="126" r="6" fill="white"/>
<circle cx="306" cy="126" r="6" fill="#302234" fill-opacity="0.8"/>
<circle cx="330" cy="126" r="6" fill="#302234" fill-opacity="0.8"/>
<circle cx="354" cy="126" r="6" fill="white"/>
<circle cx="378" cy="126" r="6" fill="white"/>
<circle cx="402" cy="126" r="6" fill="white"/>
<circle cx="258" cy="150" r="6" fill="white"/>
<circle cx="282" cy="150" r="6" fill="#302234" fill-opacity="0.8"/>
<circle cx="306" cy="150" r="6" fill="white"/>
<circle cx="330" cy="150" r="6" fill="#302234" fill-opacity="0.8"/>
<circle cx="354" cy="150" r="6" fill="white"/>
<circle cx="378" cy="150" r="6" fill="white"/>
<circle cx="402" cy="150" r="6" fill="white"/>
<circle cx="258" cy="174" r="6" fill="#302234" fill-opacity="0.8"/>
<circle cx="282" cy="174" r="6" fill="white"/>
<circle cx="306" cy="174" r="6" fill="white"/>
<circle cx="330" cy="174" r="6" fill="white"/>
<circle cx="354" cy="174" r="6" fill="white"/>
<circle cx="378" cy="174" r="6" fill="white"/>
<circle cx="402" cy="174" r="6" fill="white"/>
<rect x="456" width="204" height="204" rx="17" fill="white"/>
<circle cx="486" cy="30" r="6" fill="white"/>
<circle cx="510" cy="30" r="6" fill="white"/>
<circle cx="534" cy="30" r="6" fill="white"/>
<circle cx="558" cy="30" r="6" fill="white"/>
<circle cx="582" cy="30" r="6" fill="white"/>
<circle cx="606" cy="30" r="6" fill="white"/>
<circle cx="630" cy="30" r="6" fill="white"/>
<circle cx="486" cy="54" r="6" fill="white"/>
<circle cx="510" cy="54" r="6" fill="#302234" fill-opacity="0.8"/>
<circle cx="534" cy="54" r="6" fill="white"/>
<circle cx="558" cy="54" r="6" fill="white"/>
<circle cx="582" cy="54" r="6" fill="white"/>
<circle cx="606" cy="54" r="6" fill="white"/>
<circle cx="630" cy="54" r="6" fill="white"/>
<circle cx="486" cy="78" r="6" fill="white"/>
<circle cx="510" cy="78" r="6" fill="white"/>
<circle cx="534" cy="78" r="6" fill="#302234" fill-opacity="0.8"/>
<circle cx="558" cy="78" r="6" fill="white"/>
<circle cx="582" cy="78" r="6" fill="white"/>
<circle cx="606" cy="78" r="6" fill="white"/>
<circle cx="630" cy="78" r="6" fill="white"/>
<circle cx="486" cy="102" r="6" fill="white"/>
<circle cx="510" cy="102" r="6" fill="white"/>
<circle cx="534" cy="102" r="6" fill="white"/>
<circle cx="558" cy="102" r="6" fill="#302234" fill-opacity="0.8"/>
<circle cx="582" cy="102" r="6" fill="white"/>
<circle cx="606" cy="102" r="6" fill="white"/>
<circle cx="630" cy="102" r="6" fill="white"/>
<circle cx="486" cy="126" r="6" fill="white"/>
<circle cx="510" cy="126" r="6" fill="white"/>
<circle cx="534" cy="126" r="6" fill="#302234" fill-opacity="0.8"/>
<circle cx="558" cy="126" r="6" fill="white"/>
<circle cx="582" cy="126" r="6" fill="white"/>
<circle cx="606" cy="126" r="6" fill="white"/>
<circle cx="630" cy="126" r="6" fill="white"/>
<circle cx="486" cy="150" r="6" fill="white"/>
<circle cx="510" cy="150" r="6" fill="#302234" fill-opacity="0.8"/>
<circle cx="534" cy="150" r="6" fill="white"/>
<circle cx="558" cy="150" r="6" fill="white"/>
<circle cx="582" cy="150" r="6" fill="#302234" fill-opacity="0.8"/>
<circle cx="606" cy="150" r="6" fill="#302234" fill-opacity="0.8"/>
<circle cx="630" cy="150" r="6" fill="white"/>
<circle cx="486" cy="174" r="6" fill="white"/>
<circle cx="510" cy="174" r="6" fill="white"/>
<circle cx="534" cy="174" r="6" fill="white"/>
<circle cx="558" cy="174" r="6" fill="white"/>
<circle cx="582" cy="174" r="6" fill="white"/>
<circle cx="606" cy="174" r="6" fill="white"/>
<circle cx="630" cy="174" r="6" fill="white"/>
<rect y="228" width="204" height="204" rx="17" fill="white"/>
<circle cx="30" cy="258" r="6" fill="white"/>
<circle cx="54" cy="258" r="6" fill="white"/>
<circle cx="78" cy="258" r="6" fill="white"/>
<circle cx="102" cy="258" r="6" fill="white"/>
<circle cx="126" cy="258" r="6" fill="white"/>
<circle cx="150" cy="258" r="6" fill="white"/>
<circle cx="174" cy="258" r="6" fill="#302234" fill-opacity="0.8"/>
<circle cx="30" cy="282" r="6" fill="white"/>
<circle cx="54" cy="282" r="6" fill="white"/>
<circle cx="78" cy="282" r="6" fill="white"/>
<circle cx="102" cy="282" r="6" fill="white"/>
<circle cx="126" cy="282" r="6" fill="white"/>
<circle cx="150" cy="282" r="6" fill="white"/>
<circle cx="174" cy="282" r="6" fill="white"/>
<circle cx="30" cy="306" r="6" fill="white"/>
<circle cx="54" cy="306" r="6" fill="white"/>
<circle cx="78" cy="306" r="6" fill="white"/>
<circle cx="102" cy="306" r="6" fill="white"/>
<circle cx="126" cy="306" r="6" fill="#302234" fill-opacity="0.8"/>
<circle cx="150" cy="306" r="6" fill="white"/>
<circle cx="174" cy="306" r="6" fill="white"/>
<circle cx="30" cy="330" r="6" fill="white"/>
<circle cx="54" cy="330" r="6" fill="white"/>
<circle cx="78" cy="330" r="6" fill="white"/>
<circle cx="102" cy="330" r="6" fill="white"/>
<circle cx="126" cy="330" r="6" fill="white"/>
<circle cx="150" cy="330" r="6" fill="white"/>
<circle cx="174" cy="330" r="6" fill="white"/>
<circle cx="30" cy="354" r="6" fill="#302234" fill-opacity="0.8"/>
<circle cx="54" cy="354" r="6" fill="#302234" fill-opacity="0.8"/>
<circle cx="78" cy="354" r="6" fill="#302234" fill-opacity="0.8"/>
<circle cx="102" cy="354" r="6" fill="white"/>
<circle cx="126" cy="354" r="6" fill="white"/>
<circle cx="150" cy="354" r="6" fill="white"/>
<circle cx="174" cy="354" r="6" fill="white"/>
<circle cx="30" cy="378" r="6" fill="#302234" fill-opacity="0.8"/>
<circle cx="54" cy="378" r="6" fill="#302234" fill-opacity="0.8"/>
<circle cx="78" cy="378" r="6" fill="#302234" fill-opacity="0.8"/>
<circle cx="102" cy="378" r="6" fill="white"/>
<circle cx="126" cy="378" r="6" fill="white"/>
<circle cx="150" cy="378" r="6" fill="white"/>
<circle cx="174" cy="378" r="6" fill="white"/>
<circle cx="30" cy="402" r="6" fill="#302234" fill-opacity="0.8"/>
<circle cx="54" cy="402" r="6" fill="#302234" fill-opacity="0.8"/>
<circle cx="78" cy="402" r="6" fill="#302234" fill-opacity="0.8"/>
<circle cx="102" cy="402" r="6" fill="white"/>
<circle cx="126" cy="402" r="6" fill="white"/>
<circle cx="150" cy="402" r="6" fill="white"/>
<circle cx="174" cy="402" r="6" fill="white"/>
<rect x="228" y="228" width="204" height="204" rx="17" fill="white"/>
<circle cx="258" cy="258" r="6" fill="white"/>
<circle cx="282" cy="258" r="6" fill="white"/>
<circle cx="306" cy="258" r="6" fill="white"/>
<circle cx="330" cy="258" r="6" fill="white"/>
<circle cx="354" cy="258" r="6" fill="white"/>
<circle cx="378" cy="258" r="6" fill="white"/>
<circle cx="402" cy="258" r="6" fill="white"/>
<circle cx="258" cy="282" r="6" fill="white"/>
<circle cx="282" cy="282" r="6" fill="#302234" fill-opacity="0.8"/>
<circle cx="306" cy="282" r="6" fill="#302234" fill-opacity="0.8"/>
<circle cx="330" cy="282" r="6" fill="#302234" fill-opacity="0.8"/>
<circle cx="354" cy="282" r="6" fill="#302234" fill-opacity="0.8"/>
<circle cx="378" cy="282" r="6" fill="#302234" fill-opacity="0.8"/>
<circle cx="402" cy="282" r="6" fill="#302234" fill-opacity="0.8"/>
<circle cx="258" cy="306" r="6" fill="white"/>
<circle cx="282" cy="306" r="6" fill="white"/>
<circle cx="306" cy="306" r="6" fill="white"/>
<circle cx="330" cy="306" r="6" fill="white"/>
<circle cx="354" cy="306" r="6" fill="white"/>
<circle cx="378" cy="306" r="6" fill="white"/>
<circle cx="402" cy="306" r="6" fill="white"/>
<circle cx="258" cy="330" r="6" fill="#302234" fill-opacity="0.8"/>
<circle cx="282" cy="330" r="6" fill="#302234" fill-opacity="0.8"/>
<circle cx="306" cy="330" r="6" fill="#302234" fill-opacity="0.8"/>
<circle cx="330" cy="330" r="6" fill="#302234" fill-opacity="0.8"/>
<circle cx="354" cy="330" r="6" fill="#302234" fill-opacity="0.8"/>
<circle cx="378" cy="330" r="6" fill="#302234" fill-opacity="0.8"/>
<circle cx="402" cy="330" r="6" fill="white"/>
<circle cx="258" cy="354" r="6" fill="white"/>
<circle cx="282" cy="354" r="6" fill="white"/>
<circle cx="306" cy="354" r="6" fill="white"/>
<circle cx="330" cy="354" r="6" fill="white"/>
<circle cx="354" cy="354" r="6" fill="white"/>
<circle cx="378" cy="354" r="6" fill="white"/>
<circle cx="402" cy="354" r="6" fill="white"/>
<circle cx="258" cy="378" r="6" fill="#302234" fill-opacity="0.8"/>
<circle cx="282" cy="378" r="6" fill="#302234" fill-opacity="0.8"/>
<circle cx="306" cy="378" r="6" fill="#302234" fill-opacity="0.8"/>
<circle cx="330" cy="378" r="6" fill="#302234" fill-opacity="0.8"/>
<circle cx="354" cy="378" r="6" fill="white"/>
<circle cx="378" cy="378" r="6" fill="#302234" fill-opacity="0.8"/>
<circle cx="402" cy="378" r="6" fill="#302234" fill-opacity="0.8"/>
<circle cx="258" cy="402" r="6" fill="white"/>
<circle cx="282" cy="402" r="6" fill="white"/>
<circle cx="306" cy="402" r="6" fill="white"/>
<circle cx="330" cy="402" r="6" fill="white"/>
<circle cx="354" cy="402" r="6" fill="white"/>
<circle cx="378" cy="402" r="6" fill="white"/>
<circle cx="402" cy="402" r="6" fill="white"/>
<rect x="456" y="228" width="204" height="204" rx="17" fill="white"/>
<circle cx="486" cy="258" r="6" fill="white"/>
<circle cx="510" cy="258" r="6" fill="white"/>
<circle cx="534" cy="258" r="6" fill="white"/>
<circle cx="558" cy="258" r="6" fill="white"/>
<circle cx="582" cy="258" r="6" fill="white"/>
<circle cx="606" cy="258" r="6" fill="white"/>
<circle cx="630" cy="258" r="6" fill="white"/>
<circle cx="486" cy="282" r="6" fill="white"/>
<circle cx="510" cy="282" r="6" fill="white"/>
<circle cx="534" cy="282" r="6" fill="#302234" fill-opacity="0.8"/>
<circle cx="558" cy="282" r="6" fill="white"/>
<circle cx="582" cy="282" r="6" fill="white"/>
<circle cx="606" cy="282" r="6" fill="white"/>
<circle cx="630" cy="282" r="6" fill="white"/>
<circle cx="486" cy="306" r="6" fill="white"/>
<circle cx="510" cy="306" r="6" fill="white"/>
<circle cx="534" cy="306" r="6" fill="#302234" fill-opacity="0.8"/>
<circle cx="558" cy="306" r="6" fill="white"/>
<circle cx="582" cy="306" r="6" fill="white"/>
<circle cx="606" cy="306" r="6" fill="white"/>
<circle cx="630" cy="306" r="6" fill="white"/>
<circle cx="486" cy="330" r="6" fill="white"/>
<circle cx="510" cy="330" r="6" fill="white"/>
<circle cx="534" cy="330" r="6" fill="#302234" fill-opacity="0.8"/>
<circle cx="558" cy="330" r="6" fill="#302234" fill-opacity="0.8"/>
<circle cx="582" cy="330" r="6" fill="#302234" fill-opacity="0.8"/>
<circle cx="606" cy="330" r="6" fill="white"/>
<circle cx="630" cy="330" r="6" fill="white"/>
<circle cx="486" cy="354" r="6" fill="white"/>
<circle cx="510" cy="354" r="6" fill="#302234" fill-opacity="0.8"/>
<circle cx="534" cy="354" r="6" fill="#302234" fill-opacity="0.8"/>
<circle cx="558" cy="354" r="6" fill="#302234" fill-opacity="0.8"/>
<circle cx="582" cy="354" r="6" fill="#302234" fill-opacity="0.8"/>
<circle cx="606" cy="354" r="6" fill="#302234" fill-opacity="0.8"/>
<circle cx="630" cy="354" r="6" fill="white"/>
<circle cx="486" cy="378" r="6" fill="white"/>
<circle cx="510" cy="378" r="6" fill="#302234" fill-opacity="0.8"/>
<circle cx="534" cy="378" r="6" fill="#302234" fill-opacity="0.8"/>
<circle cx="558" cy="378" r="6" fill="#302234" fill-opacity="0.8"/>
<circle cx="582" cy="378" r="6" fill="#302234" fill-opacity="0.8"/>
<circle cx="606" cy="378" r="6" fill="#302234" fill-opacity="0.8"/>
<circle cx="630" cy="378" r="6" fill="white"/>
<circle cx="486" cy="402" r="6" fill="white"/>
<circle cx="510" cy="402" r="6" fill="white"/>
<circle cx="534" cy="402" r="6" fill="#302234" fill-opacity="0.8"/>
<circle cx="558" cy="402" r="6" fill="#302234" fill-opacity="0.8"/>
<circle cx="582" cy="402" r="6" fill="#302234" fill-opacity="0.8"/>
<circle cx="606" cy="402" r="6" fill="white"/>
<circle cx="630" cy="402" r="6" fill="white"/>
</svg>
