<svg width="126" height="42" viewBox="0 0 126 42" fill="none" xmlns="http://www.w3.org/2000/svg">
<g clip-path="url(#clip0_254_1628)">
<path d="M12.1393 34.2515C10.3905 34.2515 8.80945 33.9521 7.39609 33.3532C6.00667 32.7543 4.90473 31.8919 4.09024 30.766C3.27576 29.6401 2.85654 28.3106 2.83259 26.7775H8.22255C8.29441 27.8075 8.65374 28.622 9.30054 29.2209C9.97129 29.8198 10.8816 30.1192 12.0315 30.1192C13.2053 30.1192 14.1275 29.8437 14.7983 29.2928C15.469 28.7178 15.8044 27.9752 15.8044 27.0649C15.8044 26.3223 15.5768 25.7114 15.1217 25.2323C14.6665 24.7532 14.0916 24.3819 13.3969 24.1184C12.7262 23.8309 11.7919 23.5195 10.5941 23.1841C8.96516 22.705 7.63564 22.2379 6.60556 21.7828C5.59943 21.3036 4.72506 20.597 3.98244 19.6627C3.26378 18.7045 2.90445 17.4349 2.90445 15.8538C2.90445 14.3686 3.27576 13.075 4.01838 11.973C4.76099 10.8711 5.80305 10.0326 7.14455 9.45771C8.48606 8.85883 10.0192 8.55939 11.744 8.55939C14.3312 8.55939 16.4273 9.19421 18.0323 10.4638C19.6612 11.7095 20.5596 13.4583 20.7273 15.7101H15.1936C15.1457 14.8477 14.7743 14.141 14.0796 13.59C13.4089 13.0151 12.5106 12.7276 11.3847 12.7276C10.4025 12.7276 9.61196 12.9792 9.01307 13.4822C8.43815 13.9853 8.15068 14.7159 8.15068 15.6741C8.15068 16.3449 8.36628 16.9078 8.79748 17.363C9.25263 17.7942 9.8036 18.1535 10.4504 18.441C11.1211 18.7045 12.0554 19.0159 13.2532 19.3752C14.8821 19.8543 16.2117 20.3335 17.2417 20.8126C18.2718 21.2917 19.1582 22.0103 19.9008 22.9685C20.6434 23.9268 21.0147 25.1844 21.0147 26.7415C21.0147 28.083 20.6674 29.3287 19.9727 30.4786C19.278 31.6284 18.2599 32.5507 16.9183 33.2454C15.5768 33.9162 13.9838 34.2515 12.1393 34.2515ZM42.2646 23.6153C42.2646 24.334 42.2167 24.9808 42.1209 25.5557H27.568C27.6878 26.9931 28.1909 28.119 29.0772 28.9334C29.9636 29.7479 31.0535 30.1552 32.3471 30.1552C34.2156 30.1552 35.5452 29.3527 36.3357 27.7476H41.7616C41.1866 29.6641 40.0847 31.2451 38.4557 32.4908C36.8268 33.7125 34.8265 34.3234 32.4549 34.3234C30.5385 34.3234 28.8137 33.9042 27.2805 33.0657C25.7714 32.2033 24.5856 30.9936 23.7232 29.4365C22.8847 27.8794 22.4655 26.0827 22.4655 24.0465C22.4655 21.9864 22.8847 20.1777 23.7232 18.6206C24.5616 17.0635 25.7354 15.8658 27.2446 15.0273C28.7538 14.1889 30.4906 13.7697 32.4549 13.7697C34.3474 13.7697 36.0362 14.1769 37.5215 14.9914C39.0307 15.8059 40.1925 16.9677 41.007 18.4769C41.8454 19.9621 42.2646 21.675 42.2646 23.6153ZM37.0543 22.178C37.0304 20.8844 36.5633 19.8543 35.653 19.0878C34.7426 18.2972 33.6287 17.902 32.3112 17.902C31.0655 17.902 30.0115 18.2853 29.1491 19.0518C28.3106 19.7945 27.7956 20.8365 27.6039 22.178H37.0543ZM49.3502 17.1833C49.997 16.1293 50.8354 15.3028 51.8655 14.7039C52.9195 14.1051 54.1173 13.8056 55.4588 13.8056V19.0878H54.1293C52.5482 19.0878 51.3505 19.4591 50.536 20.2017C49.7455 20.9443 49.3502 22.2379 49.3502 24.0825V34H44.3196V14.0931H49.3502V17.1833ZM65.5307 29.3646L70.5614 14.0931H75.9154L68.5491 34H62.4405L55.1101 14.0931H60.5001L65.5307 29.3646ZM79.6752 11.7215C78.7888 11.7215 78.0462 11.446 77.4473 10.895C76.8724 10.3201 76.5849 9.61342 76.5849 8.77499C76.5849 7.93655 76.8724 7.24184 77.4473 6.69087C78.0462 6.11594 78.7888 5.82847 79.6752 5.82847C80.5615 5.82847 81.2922 6.11594 81.8671 6.69087C82.466 7.24184 82.7654 7.93655 82.7654 8.77499C82.7654 9.61342 82.466 10.3201 81.8671 10.895C81.2922 11.446 80.5615 11.7215 79.6752 11.7215ZM82.1546 14.0931V34H77.1239V14.0931H82.1546ZM84.2142 24.0465C84.2142 21.9864 84.6335 20.1897 85.4719 18.6566C86.3103 17.0995 87.4722 15.9017 88.9574 15.0633C90.4426 14.2009 92.1435 13.7697 94.0599 13.7697C96.5273 13.7697 98.5635 14.3925 100.169 15.6382C101.797 16.8599 102.887 18.5847 103.438 20.8126H98.0125C97.7251 19.9502 97.234 19.2794 96.5393 18.8003C95.8685 18.2972 95.0301 18.0457 94.024 18.0457C92.5867 18.0457 91.4488 18.5727 90.6103 19.6268C89.7719 20.6569 89.3527 22.1301 89.3527 24.0465C89.3527 25.939 89.7719 27.4123 90.6103 28.4663C91.4488 29.4964 92.5867 30.0114 94.024 30.0114C96.0602 30.0114 97.3897 29.1011 98.0125 27.2805H103.438C102.887 29.4365 101.797 31.1493 100.169 32.4189C98.5396 33.6886 96.5034 34.3234 94.0599 34.3234C92.1435 34.3234 90.4426 33.9042 88.9574 33.0657C87.4722 32.2033 86.3103 31.0056 85.4719 29.4724C84.6335 27.9153 84.2142 26.1067 84.2142 24.0465ZM124.012 23.6153C124.012 24.334 123.964 24.9808 123.869 25.5557H109.316C109.436 26.9931 109.939 28.119 110.825 28.9334C111.711 29.7479 112.801 30.1552 114.095 30.1552C115.963 30.1552 117.293 29.3527 118.083 27.7476H123.509C122.934 29.6641 121.832 31.2451 120.203 32.4908C118.574 33.7125 116.574 34.3234 114.203 34.3234C112.286 34.3234 110.561 33.9042 109.028 33.0657C107.519 32.2033 106.333 30.9936 105.471 29.4365C104.632 27.8794 104.213 26.0827 104.213 24.0465C104.213 21.9864 104.632 20.1777 105.471 18.6206C106.309 17.0635 107.483 15.8658 108.992 15.0273C110.502 14.1889 112.238 13.7697 114.203 13.7697C116.095 13.7697 117.784 14.1769 119.269 14.9914C120.778 15.8059 121.94 16.9677 122.755 18.4769C123.593 19.9621 124.012 21.675 124.012 23.6153ZM118.802 22.178C118.778 20.8844 118.311 19.8543 117.401 19.0878C116.49 18.2972 115.376 17.902 114.059 17.902C112.813 17.902 111.759 18.2853 110.897 19.0518C110.058 19.7945 109.543 20.8365 109.352 22.178H118.802Z" fill="#282828"/>
</g>
<defs>
<clipPath id="clip0_254_1628">
<rect width="126" height="42" fill="white"/>
</clipPath>
</defs>
</svg>
