<svg width="82" height="42" viewBox="0 0 82 42" fill="none" xmlns="http://www.w3.org/2000/svg">
<path fill-rule="evenodd" clip-rule="evenodd" d="M0 9H5.87421V22.9816C5.87421 24.8073 6.04722 25.9603 6.28565 26.5877C6.50942 27.1421 6.87206 27.5602 7.42189 27.8746C7.99977 28.1995 8.77055 28.4009 9.80115 28.4009C11.7319 28.4009 12.7184 27.9546 13.1937 27.4476C13.401 27.2265 13.6463 26.8018 13.8337 26.033C14.0191 25.2723 14.1258 24.265 14.1258 22.9816V9H20V22.9963C20 25.2578 19.7478 27.1909 19.163 28.7128C18.5418 30.3292 17.4208 31.6164 15.8894 32.5759L15.8868 32.5775C14.2957 33.5697 12.3113 34 10.0516 34C7.86884 34 5.94424 33.6254 4.36893 32.7709C2.78834 31.9135 1.62788 30.6474 0.941504 29.0036L0.939974 28.9999C0.282362 27.4133 0 25.3806 0 22.9963V9Z" fill="#1D1D1F"/>
<path fill-rule="evenodd" clip-rule="evenodd" d="M24 9H29.2375L38.2521 22.7086V9H44V34H38.7621L29.7479 20.2801V34H24V9Z" fill="#1D1D1F"/>
<path fill-rule="evenodd" clip-rule="evenodd" d="M48 9H54V34H48V9Z" fill="#1D1D1F"/>
<path fill-rule="evenodd" clip-rule="evenodd" d="M57.0696 9H64.2535L68.6671 15.2717L68.6678 15.2727C68.8622 15.5482 69.0454 15.8115 69.217 16.0623C69.3718 15.8505 69.5314 15.6372 69.6959 15.4224L74.5408 9H81.4753L72.6605 20.8896L82 34H74.6716L69.0331 25.9662L63.2779 34H56L65.5843 21.0176L57.0696 9Z" fill="#1D1D1F"/>
</svg>
